<svg width="100" height="100" viewBox="0 0 100 100" fill="none" xmlns="http://www.w3.org/2000/svg">
  <!-- Circle background -->
  <circle cx="50" cy="50" r="45" stroke="#1E88E5" stroke-width="4" stroke-linecap="round" stroke-linejoin="round" fill="white"/>
  
  <!-- Heartbeat line -->
  <path d="M18 50H35L40 40L50 60L60 30L65 50H82" stroke="#FF7043" stroke-width="4" stroke-linecap="round" stroke-linejoin="round"/>
  
  <!-- Health symbol -->
  <circle cx="50" cy="50" r="15" fill="#26A69A" opacity="0.2"/>
  <path d="M50 35V65" stroke="#26A69A" stroke-width="4" stroke-linecap="round"/>
  <path d="M35 50H65" stroke="#26A69A" stroke-width="4" stroke-linecap="round"/>
  
  <!-- Heart outline -->
  <path d="M75 33C72 28 65 28 60 33C55 28 48 28 45 33C42 38 42 45 50 53L60 63L70 53C78 45 78 38 75 33Z" fill="white" stroke="#1E88E5" stroke-width="2" opacity="0.7"/>
  
  <!-- Data points -->
  <circle cx="65" cy="50" r="2" fill="#FF7043"/>
  <circle cx="60" cy="30" r="2" fill="#FF7043"/>
  <circle cx="50" cy="60" r="2" fill="#FF7043"/>
  <circle cx="40" cy="40" r="2" fill="#FF7043"/>
</svg>